<svg aria-hidden="true" style="position: absolute; width: 0; height: 0; overflow: hidden;" version="1.1" xmlns="http://www.w3.org/2000/svg" xmlns:xlink="http://www.w3.org/1999/xlink">
<defs>
<symbol id="icon-bar-graph" viewBox="0 0 32 32">
<path d="M30.047 12.771h-5.626v17.354h-1.874v-13.267h-5.626v13.267h-1.872v-16.86h-5.626v16.86h-1.842v-9.348h-5.629v9.348h-1.952v1.875h32v-1.875h-1.953v-17.354zM5.703 22.652v1.875h-1.874v-1.875h1.874zM3.829 30.125v-3.723h1.874v3.723h-1.874zM13.172 15.14v1.875h-1.873v-1.875h1.873zM11.299 30.125v-11.235h1.873v11.235h-1.873zM20.67 18.733v1.875h-1.874v-1.875h1.874zM18.796 30.125v-7.642h1.874v7.642h-1.874zM28.17 14.646v1.875h-1.874v-1.875h1.874zM26.296 30.125v-11.729h1.874v11.729h-1.874z"></path>
<path d="M26.387 0v1.875h2.411l-8.64 8.64-7.157-7.158-12.995 12.995 1.327 1.326 11.668-11.669 7.158 7.158 9.964-9.966v2.42h1.877v-5.622h-5.613z"></path>
</symbol>
<symbol id="icon-display" viewBox="0 0 32 32">
<path d="M30.4 0.022h-28.8c-0.884 0-1.6 0.716-1.6 1.6v0 19.2c0 0.884 0.716 1.6 1.6 1.6v0h9.066c1.473 0.001 2.666 1.195 2.667 2.667v0c-0.003 1.472-1.195 2.664-2.667 2.666h-0c-0.007 0-0.013 0.004-0.021 0.004-0.042 0.003-0.081 0.012-0.118 0.024l0.003-0.001c-0.034 0.007-0.063 0.015-0.090 0.026l0.004-0.001c-0.033 0.018-0.061 0.037-0.088 0.059l0.001-0.001c-0.029 0.019-0.055 0.039-0.078 0.061l0-0c-0.019 0.022-0.037 0.047-0.053 0.074l-0.001 0.003c-0.021 0.029-0.040 0.063-0.056 0.098l-0.001 0.003c0 0.006-0.008 0.010-0.009 0.017l-1.066 3.2c-0.017 0.050-0.027 0.108-0.027 0.168 0 0.295 0.239 0.534 0.534 0.534 0 0 0 0 0 0h12.8c0.294-0 0.533-0.239 0.533-0.534 0-0.060-0.010-0.118-0.028-0.172l0.001 0.004-1.067-3.2c0-0.007-0.007-0.011-0.009-0.017-0.017-0.038-0.036-0.071-0.059-0.102l0.001 0.001c-0.017-0.029-0.035-0.054-0.054-0.078l0.001 0.001c-0.023-0.022-0.049-0.041-0.076-0.059l-0.002-0.001c-0.025-0.021-0.054-0.040-0.084-0.056l-0.003-0.001c-0.024-0.009-0.053-0.018-0.084-0.024l-0.004-0.001c-0.033-0.012-0.072-0.020-0.112-0.023l-0.002-0c-0.008 0-0.013-0.004-0.021-0.004-1.471-0.003-2.663-1.195-2.666-2.666v-0c0.001-1.472 1.194-2.665 2.666-2.667h9.068c0.884 0 1.6-0.716 1.6-1.6v0-19.2c0-0.884-0.716-1.6-1.6-1.6v0zM17.6 25.090c0.003 1.923 1.457 3.505 3.325 3.71l0.017 0.002 0.718 2.154h-11.319l0.718-2.154c1.885-0.207 3.339-1.79 3.342-3.713v-0c0-0 0-0.001 0-0.001 0-1.045-0.431-1.99-1.125-2.665l-0.001-0.001h5.452c-0.695 0.676-1.126 1.621-1.126 2.666 0 0 0 0.001 0 0.001v-0zM30.934 20.823c0 0.294-0.239 0.533-0.534 0.533h-28.8c0 0 0 0 0 0-0.294 0-0.533-0.238-0.534-0.533v-1.6h29.867v1.6zM1.066 18.156v-16.534c0-0.294 0.239-0.533 0.534-0.533h28.8c0.294 0 0.534 0.239 0.534 0.533v16.534h-29.867z"></path>
<path d="M22.569 8.051l-1.535-0.513 0.723-1.448c0.036-0.069 0.056-0.152 0.056-0.238 0-0.147-0.060-0.281-0.157-0.377v0l-1.508-1.508c-0.096-0.097-0.23-0.156-0.377-0.156-0.087 0-0.169 0.021-0.241 0.057l0.003-0.001-1.449 0.724-0.512-1.536c-0.073-0.213-0.272-0.364-0.506-0.364h-2.133c-0.23 0-0.433 0.147-0.506 0.364l-0.512 1.536-1.449-0.724c-0.069-0.035-0.151-0.056-0.238-0.056-0.147 0-0.281 0.060-0.377 0.156v0l-1.508 1.508c-0.097 0.097-0.156 0.23-0.156 0.378 0 0.087 0.021 0.169 0.058 0.241l-0.001-0.003 0.723 1.448-1.535 0.513c-0.213 0.073-0.364 0.271-0.365 0.505v2.134c0 0.229 0.147 0.432 0.365 0.505l1.535 0.512-0.723 1.449c-0.035 0.069-0.056 0.151-0.056 0.238 0 0.147 0.060 0.281 0.156 0.377v0l1.508 1.508c0.097 0.097 0.23 0.156 0.377 0.156 0.087 0 0.168-0.021 0.241-0.057l-0.003 0.001 1.449-0.724 0.512 1.535c0.073 0.218 0.277 0.365 0.506 0.365h2.133c0.23 0 0.433-0.147 0.506-0.365l0.512-1.535 1.449 0.724c0.069 0.035 0.151 0.056 0.238 0.056 0.147 0 0.281-0.060 0.377-0.156l1.508-1.508c0.097-0.097 0.156-0.23 0.156-0.377 0-0.087-0.021-0.169-0.058-0.241l0.001 0.003-0.723-1.449 1.535-0.512c0.214-0.072 0.365-0.271 0.365-0.505v-2.134c0-0.229-0.147-0.432-0.365-0.505zM21.866 10.305l-1.755 0.587c-0.213 0.073-0.364 0.272-0.364 0.506 0 0.087 0.021 0.169 0.057 0.241l-0.001-0.003 0.828 1.654-0.965 0.964-1.654-0.827c-0.070-0.036-0.153-0.057-0.24-0.057-0.234 0-0.433 0.151-0.505 0.361l-0.001 0.004-0.584 1.755h-1.366l-0.586-1.756c-0.073-0.213-0.272-0.363-0.506-0.363-0.087 0-0.169 0.021-0.241 0.057l0.003-0.001-1.654 0.827-0.964-0.965 0.827-1.653c0.035-0.069 0.056-0.151 0.056-0.238 0-0.234-0.151-0.433-0.36-0.505l-0.004-0.001-1.756-0.587v-1.364l1.756-0.587c0.213-0.073 0.364-0.271 0.364-0.505 0-0.087-0.021-0.169-0.058-0.241l0.001 0.003-0.827-1.653 0.964-0.965 1.654 0.827c0.069 0.035 0.152 0.056 0.238 0.056 0.234 0 0.433-0.151 0.504-0.36l0.001-0.004 0.586-1.755h1.365l0.586 1.756c0.073 0.213 0.272 0.364 0.506 0.364 0.088 0 0.17-0.021 0.243-0.059l-0.003 0.001 1.654-0.827 0.965 0.965-0.828 1.653c-0.035 0.069-0.056 0.151-0.056 0.238 0 0.234 0.151 0.433 0.361 0.505l0.004 0.001 1.755 0.587-0.003 1.364z"></path>
<path d="M16 6.423c-1.767 0-3.2 1.433-3.2 3.2s1.433 3.2 3.2 3.2v0c1.767 0 3.2-1.433 3.2-3.2s-1.433-3.2-3.2-3.2v0zM16 11.756c-0.013 0-0.028 0-0.043 0-1.178 0-2.134-0.955-2.134-2.134s0.955-2.134 2.134-2.134c0.015 0 0.030 0 0.045 0l-0.002-0c1.16 0.024 2.091 0.97 2.091 2.133s-0.931 2.109-2.088 2.133l-0.002 0z"></path>
</symbol>
<symbol id="icon-digital-marketing" viewBox="0 0 32 32">
<path d="M11.734 13.334v-11.734c0-0.906-0.694-1.6-1.6-1.6h-5.334c-0.906 0-1.6 0.694-1.6 1.6v11.734c0 0.906 0.694 1.6 1.6 1.6h5.334c0.906 0 1.6-0.694 1.6-1.6zM10.666 11.734h-6.4v-8.534h6.4v8.534zM4.8 1.066h5.334c0.32 0 0.533 0.214 0.533 0.534v0.534h-6.4v-0.534c0-0.32 0.214-0.534 0.534-0.534zM4.266 13.334v-0.534h6.4v0.534c0 0.32-0.213 0.533-0.533 0.533h-5.334c-0.32 0-0.534-0.213-0.534-0.533z"></path>
<path d="M9.92 7.466l-4.054-3.253v6.506l4.054-3.254zM6.934 6.454l1.28 1.013-1.28 1.014v-2.026zM14.934 9.066c0-3.52 2.88-6.4 6.4-6.4 1.493 0 2.986 0.534 4.16 1.494l-1.174 1.174c-2.080-1.654-5.066-1.334-6.72 0.746-0.66 0.808-1.062 1.85-1.066 2.985v0.001h1.066c-0-0.007-0-0.015-0-0.023 0-2.049 1.661-3.71 3.71-3.71 0.008 0 0.016 0 0.025 0h-0.001c0.8 0 1.6 0.266 2.24 0.746l-1.174 1.174c-0.299-0.2-0.667-0.32-1.062-0.32-0.001 0-0.003 0-0.004 0h0c-1.177 0.003-2.13 0.956-2.134 2.132v0h1.066c0-0.586 0.48-1.066 1.067-1.066 0.106 0 0.159 0 0.266 0.054l-0.64 0.64 0.746 0.746 0.64-0.64c0 0.106 0.054 0.16 0.054 0.266 0 0.587-0.48 1.067-1.066 1.067v1.066c1.177-0.004 2.129-0.957 2.133-2.133v-0c0-0.373-0.106-0.746-0.32-1.066l1.174-1.174c1.226 1.654 0.906 4-0.746 5.227-0.617 0.464-1.396 0.744-2.239 0.746h-0.001v1.066c0.005 0 0.011 0 0.016 0 2.64 0 4.78-2.14 4.78-4.78 0-1.143-0.401-2.193-1.071-3.015l0.007 0.009 1.12-1.12c2.294 2.666 1.974 6.72-0.746 9.014-1.12 0.96-2.614 1.493-4.106 1.493v1.067c0.003 0 0.007 0 0.011 0 4.117 0 7.455-3.338 7.455-7.455 0-0.004 0-0.009 0-0.013v0.001c0-1.813-0.64-3.52-1.814-4.906l0.96-0.96h2.454v-1.066h-2.134v-2.134h-1.066v2.454l-0.96 0.96c-3.147-2.667-7.84-2.347-10.56 0.746-1.174 1.386-1.814 3.094-1.814 4.906h1.067zM26.134 19.734h-4.694l-10.134-3.734h-1.173c-0.907 0-1.6 0.694-1.6 1.6v10.666c0 0.907 0.693 1.6 1.6 1.6h1.173l10.134-4.266h1.494v4.8c0 0.907 0.693 1.6 1.6 1.6s1.6-0.693 1.6-1.6v-4.8c0.906 0 1.6-0.694 1.6-1.6v-2.666c0-0.907-0.694-1.6-1.6-1.6zM11.734 17.28l9.066 3.36v4.054l-9.066 3.84v-11.254zM9.6 28.266v-10.666c0-0.32 0.214-0.534 0.534-0.534h0.533v11.734h-0.533c-0.32 0-0.534-0.214-0.534-0.534zM25.066 30.4c0 0.32-0.213 0.534-0.533 0.534s-0.534-0.214-0.534-0.534v-4.8h1.066v4.8zM26.666 24c0 0.32-0.213 0.534-0.533 0.534h-4.267v-3.734h4.267c0.32 0 0.533 0.214 0.533 0.534v2.666zM5.334 21.866h2.133v1.067h-2.133v-1.067zM5.497 17.985l0.754-0.754 1.584 1.584-0.754 0.754-1.584-1.584zM5.497 26.815l1.584-1.584 0.754 0.754-1.584 1.584-0.754-0.754z"></path>
<path d="M13.866 10.186v0.534c0 3.2 2.614 5.814 5.814 5.814h0.586v-6.4h-5.866l-0.534 0.053zM19.2 11.2v4.266c-2.24-0.213-4-2.026-4.214-4.266h4.214zM12.8 1.6h3.2v1.066h-3.2v-1.066zM29.866 11.2v10.134c0 0.32-0.213 0.533-0.533 0.533h-0.534v1.067h0.534c0.906 0 1.6-0.694 1.6-1.6v-10.134h-1.067zM2.134 21.334v-10.134h-1.067v10.134c0 0.906 0.694 1.6 1.6 1.6h1.6v-1.067h-1.6c-0.32 0-0.533-0.213-0.533-0.533z"></path>
</symbol>
<symbol id="icon-paper" viewBox="0 0 32 32">
<path d="M4.601 22.94c-0.239 0-0.432-0.194-0.432-0.432v0-15.905c0.041-2.187 1.824-3.945 4.017-3.945 0.008 0 0.017 0 0.025 0h18.446c0.239 0 0.432 0.194 0.432 0.432s-0.194 0.432-0.432 0.432v0h-18.448c-0.006-0-0.014-0-0.021-0-1.72 0-3.119 1.376-3.156 3.087l-0 0.003v15.895c0 0.239-0.194 0.432-0.432 0.432v0z"></path>
<path d="M25.748 10.744h-2.699c-0.239 0-0.432-0.194-0.432-0.432s0.194-0.432 0.432-0.432v0h1.764c-0.183-0.343-0.291-0.749-0.291-1.181 0-0.32 0.059-0.626 0.167-0.908l-0.006 0.017h-1.635c-0.239 0-0.432-0.194-0.432-0.432s0.194-0.432 0.432-0.432v0h2.319c0 0 0 0 0 0 0.239 0 0.432 0.194 0.432 0.432 0 0.089-0.027 0.172-0.073 0.24l0.001-0.002c-0.093 0.142-0.877 1.424 0.291 2.361 0.099 0.080 0.162 0.201 0.162 0.337 0 0.239-0.194 0.432-0.432 0.432-0 0-0 0-0 0v0z"></path>
<path d="M23.049 26.223c-0.239 0-0.432-0.194-0.432-0.432v0-19.189c0-0.239 0.194-0.432 0.432-0.432s0.432 0.194 0.432 0.432v0 19.189c0 0.239-0.194 0.432-0.432 0.432v0z"></path>
<path d="M3.716 29.342c-0.711 0-1.399-0.251-1.943-0.709-0.825-0.69-1.346-1.719-1.346-2.87 0-1.848 1.343-3.382 3.105-3.68l0.022-0.003c0.020-0.003 0.043-0.005 0.066-0.005 0.001 0 0.002 0 0.003 0h16.497c0.238 0.002 0.43 0.195 0.43 0.432 0 0.213-0.155 0.391-0.358 0.426l-0.003 0c-1.369 0.233-2.399 1.411-2.399 2.829 0 0.884 0.399 1.674 1.028 2.2l0.005 0.004c0.373 0.314 0.841 0.493 1.328 0.509h0.080c0.356-0.005 0.692-0.088 0.991-0.234l-0.014 0.006c0.837-0.389 1.407-1.223 1.407-2.189 0-0 0-0 0-0v0c0-0.239 0.194-0.432 0.432-0.432s0.432 0.194 0.432 0.432v0c0 0.002 0 0.004 0 0.006 0 1.309-0.77 2.438-1.883 2.959l-0.020 0.008c-0.414 0.196-0.865 0.301-1.323 0.307-0.014 0.002-0.031 0.003-0.048 0.003-0 0-0.001 0-0.001 0h-16.449c-0.011 0.001-0.025 0.002-0.038 0.002-0.001 0-0.002 0-0.003 0h0zM3.661 22.94c-1.354 0.247-2.367 1.418-2.367 2.824 0 0.886 0.401 1.677 1.032 2.204l0.005 0.004c0.363 0.306 0.833 0.495 1.346 0.505l0.002 0h14.415c-0.718-0.683-1.165-1.645-1.165-2.712 0-1.126 0.497-2.135 1.285-2.82l0.005-0.004-14.557-0.001zM26.658 10.744h-0.798c-0.239 0-0.432-0.194-0.432-0.432s0.194-0.432 0.432-0.432v0h0.797c0 0 0.001 0 0.001 0 1.755 0 3.178-1.423 3.178-3.178s-1.423-3.178-3.178-3.178c-1.724 0-3.128 1.373-3.177 3.086l-0 0.005c-0.002 0.235-0.193 0.424-0.428 0.424-0.065 0-0.127-0.014-0.182-0.040l0.003 0.001c-0.153-0.069-0.257-0.22-0.257-0.395 0-0.004 0-0.008 0-0.012v0.001c0.060-2.187 1.847-3.937 4.043-3.937 2.233 0 4.044 1.811 4.044 4.044s-1.811 4.044-4.044 4.044c-0.001 0-0.001 0-0.002 0h0v0.002zM20.556 7.279h-13.005c-0.239 0-0.432-0.194-0.432-0.432s0.194-0.432 0.432-0.432v0h13.005c0.239 0 0.432 0.194 0.432 0.432s-0.194 0.432-0.432 0.432v0zM20.556 11.183h-3.475c-0.239 0-0.432-0.194-0.432-0.432s0.194-0.432 0.432-0.432v0h3.475c0.239 0 0.432 0.194 0.432 0.432s-0.194 0.432-0.432 0.432v0zM8.541 11.183h-0.989c-0.239 0-0.432-0.194-0.432-0.432s0.194-0.432 0.432-0.432v0h0.989c0.239 0 0.432 0.194 0.432 0.432s-0.194 0.432-0.432 0.432v0zM20.556 15.085h-3.295c-0.239 0-0.432-0.194-0.432-0.432s0.194-0.432 0.432-0.432v0h3.295c0.239 0 0.432 0.194 0.432 0.432s-0.194 0.432-0.432 0.432v0zM8.046 15.085h-0.495c-0.239 0-0.432-0.194-0.432-0.432s0.194-0.432 0.432-0.432v0h0.495c0.239 0 0.432 0.194 0.432 0.432s-0.194 0.432-0.432 0.432v0zM20.556 18.988h-0.466c-0.239 0-0.432-0.194-0.432-0.432s0.194-0.432 0.432-0.432v0h0.466c0.239 0 0.432 0.194 0.432 0.432s-0.194 0.432-0.432 0.432v0zM13.387 18.988h-5.838c-0.239 0-0.432-0.194-0.432-0.432s0.194-0.432 0.432-0.432v0h5.838c0.239 0 0.432 0.194 0.432 0.432s-0.194 0.432-0.432 0.432v0zM12.517 17.254c-1.985 0-3.594-1.609-3.594-3.594s1.609-3.594 3.594-3.594v0c1.985 0 3.594 1.609 3.594 3.594s-1.609 3.594-3.594 3.594v0zM12.517 10.934c-1.504 0.004-2.723 1.224-2.723 2.729 0 1.507 1.222 2.729 2.729 2.729s2.729-1.222 2.729-2.729c0-1.133-0.691-2.105-1.674-2.518l-0.018-0.007c-0.307-0.131-0.664-0.207-1.039-0.207-0.002 0-0.004 0-0.007 0h0v0.002z"></path>
<path d="M11.669 14.093c-0.010 0-0.021 0-0.033 0-0.677 0-1.226-0.549-1.226-1.226s0.549-1.226 1.226-1.226c0.011 0 0.023 0 0.034 0l-0.002-0c0.663 0.018 1.193 0.56 1.193 1.225s-0.53 1.207-1.191 1.225l-0.002 0zM11.669 12.508c-0 0-0 0-0 0-0.199 0-0.361 0.162-0.361 0.361s0.161 0.361 0.361 0.361h0c0.199 0 0.361-0.162 0.361-0.361s-0.162-0.361-0.361-0.361v0zM17.257 20.327c-0 0-0 0-0.001 0-0.119 0-0.227-0.048-0.305-0.126v0l-3.367-3.367c-0.081-0.079-0.132-0.189-0.132-0.311 0-0.239 0.194-0.432 0.432-0.432 0.122 0 0.232 0.051 0.311 0.132l3.232 3.23 0.834-0.048 0.048-0.835-0.070-0.070-0.707-0.080c-0.2-0.024-0.357-0.181-0.38-0.379l-0-0.002-0.060-0.515-0.514-0.058c-0.2-0.023-0.358-0.18-0.381-0.378l-0-0.002-0.080-0.708-1.038-1.038c-0.075-0.078-0.121-0.184-0.121-0.3 0-0.239 0.194-0.432 0.432-0.432 0.117 0 0.223 0.046 0.301 0.121l1.143 1.144c0.069 0.069 0.112 0.16 0.123 0.257l0.060 0.515 0.515 0.058c0.2 0.023 0.357 0.181 0.38 0.378l0 0.002 0.059 0.516 0.516 0.059c0.101 0.012 0.19 0.057 0.257 0.124v0l0.314 0.315c0.078 0.079 0.127 0.187 0.127 0.307 0 0.008-0 0.017-0.001 0.025l0-0.001-0.083 1.413c-0.013 0.219-0.188 0.393-0.405 0.406l-0.001 0-1.437 0.082z"></path>
</symbol>
<symbol id="icon-home" viewBox="0 0 32 32">
<path d="M23.442 8.871c-0.113-0.113-0.269-0.183-0.442-0.183h-0c-0.345 0.002-0.623 0.281-0.625 0.625v0c0 0.164 0.067 0.325 0.183 0.441s0.277 0.183 0.441 0.183 0.326-0.067 0.443-0.182c0.112-0.113 0.182-0.27 0.183-0.442v-0c-0-0.172-0.070-0.329-0.183-0.442l0 0zM9.375 17.625h-5c-0.345 0-0.625 0.28-0.625 0.625v0 4.999c0 0.346 0.28 0.625 0.625 0.625h4.999c0.346 0 0.625-0.279 0.625-0.624v-5c0-0.346-0.279-0.625-0.624-0.625zM8.75 22.625h-3.75v-3.75h3.75v3.75zM31.614 13.111c-0.071-0.030-0.153-0.048-0.24-0.048-0.172 0-0.329 0.070-0.442 0.183l-17.687 17.687c-0.113 0.113-0.183 0.269-0.183 0.442 0 0.345 0.28 0.625 0.625 0.625h17.687c0.345 0 0.625-0.28 0.625-0.625v0-17.686c0-0 0-0 0-0 0-0.259-0.157-0.481-0.382-0.576l-0.004-0.002zM30.749 30.75h-15.552l2.385-2.385 0.597 0.597c0.113 0.113 0.269 0.184 0.442 0.184s0.329-0.070 0.442-0.184l0-0c0.113-0.113 0.183-0.269 0.183-0.442s-0.070-0.329-0.183-0.442v0l-0.597-0.597 1.591-1.591 0.597 0.597c0.113 0.114 0.269 0.184 0.442 0.184s0.329-0.070 0.442-0.184l0-0c0.113-0.113 0.183-0.269 0.183-0.442s-0.070-0.329-0.183-0.442v0l-0.597-0.597 1.591-1.591 0.597 0.597c0.113 0.113 0.269 0.184 0.442 0.184s0.329-0.070 0.442-0.184l0-0c0.113-0.113 0.183-0.269 0.183-0.442s-0.070-0.329-0.183-0.442v0l-0.597-0.597 1.591-1.59 0.597 0.597c0.113 0.114 0.269 0.184 0.442 0.184s0.329-0.070 0.442-0.184l0-0c0.113-0.113 0.183-0.269 0.183-0.442s-0.070-0.329-0.183-0.442v0l-0.597-0.597 1.591-1.591 0.597 0.597c0.113 0.113 0.269 0.184 0.442 0.184s0.329-0.070 0.442-0.184l0-0c0.113-0.113 0.183-0.269 0.183-0.442s-0.070-0.329-0.183-0.442v0l-0.597-0.597 2.386-2.384v15.554z"></path>
<path d="M28.489 20.655c-0.071-0.030-0.153-0.048-0.239-0.048-0.172 0-0.328 0.070-0.441 0.183v0l-7.018 7.018c-0.113 0.113-0.183 0.269-0.183 0.442 0 0.345 0.28 0.625 0.625 0.625h7.018c0.345 0 0.625-0.28 0.625-0.625v0-7.017c-0-0.259-0.158-0.481-0.383-0.575l-0.004-0.002zM27.625 27.625h-4.884l4.884-4.885v4.884zM28.941 9.329c-0.113-0.113-0.27-0.183-0.442-0.183-0.077 0-0.151 0.014-0.219 0.040l0.004-0.001-4.267 1.563c-0.089 0.033-0.164 0.083-0.227 0.145v0l-1.2 1.199-7.836-7.836c-0.113-0.113-0.269-0.183-0.442-0.183s-0.329 0.070-0.442 0.183v0l-9.431 9.432h-2.306l12.18-12.178 6.683 6.683c0.112 0.105 0.262 0.17 0.428 0.17 0.345 0 0.625-0.28 0.625-0.625 0-0.166-0.065-0.317-0.17-0.429l0 0-7.126-7.125c-0.113-0.113-0.269-0.183-0.442-0.183s-0.329 0.070-0.442 0.183v0l-13.687 13.687c-0.113 0.113-0.183 0.269-0.183 0.442 0 0.345 0.279 0.625 0.624 0.625h0.625v16.438c0 0.345 0.28 0.624 0.625 0.624h9.937c0.007 0 0.015 0 0.023 0 0.345 0 0.625-0.28 0.625-0.625s-0.28-0.625-0.625-0.625c-0.008 0-0.016 0-0.024 0l0.001-0h-9.313v-15.812h2.198c0.173-0 0.329-0.070 0.442-0.183v0l9.175-9.173 7.394 7.394-9.271 9.269v-5.619h4.375c0.335-0.013 0.602-0.288 0.602-0.625s-0.267-0.612-0.601-0.625l-0.001-0h-5.001c-0.345 0.001-0.624 0.28-0.624 0.624v7.25c0 0.073 0.013 0.143 0.035 0.208l-0.56 0.56c-0.459 0.459-0.742 1.094-0.742 1.794s0.284 1.335 0.742 1.794l-0-0c0.458 0.458 1.091 0.742 1.79 0.742 0.002 0 0.004 0 0.005 0h-0c0.649 0 1.299-0.247 1.794-0.742l5.271-5.27c0.113-0.113 0.183-0.269 0.183-0.442 0-0.345-0.28-0.625-0.625-0.625-0.173 0-0.329 0.070-0.442 0.183v0l-3.993 3.993-1.821-1.821 11.419-11.42 1.821 1.821-4.364 4.363c-0.113 0.113-0.183 0.269-0.183 0.442 0 0.345 0.28 0.625 0.625 0.625 0.173 0 0.329-0.070 0.442-0.183l4.792-4.793c0.063-0.062 0.112-0.138 0.144-0.222l0.001-0.004 1.563-4.268c0.024-0.064 0.038-0.138 0.038-0.215 0-0.173-0.070-0.329-0.183-0.442v0zM13.763 26.329l-0.394 0.393c-0.232 0.233-0.552 0.377-0.907 0.377-0.001 0-0.002 0-0.003 0h0c-0.344 0-0.668-0.134-0.911-0.377-0.233-0.232-0.377-0.552-0.377-0.907 0-0.001 0-0.003 0-0.004v0c0-0.343 0.134-0.667 0.377-0.91l0.393-0.394 1.821 1.821zM26.692 12.886l-1.308-1.309 2.064-0.756-0.756 2.064z"></path>
<path d="M21.043 19.932c-0.113-0.113-0.269-0.182-0.441-0.183h-0c-0.173 0-0.329 0.070-0.443 0.183l0-0c-0.112 0.113-0.182 0.269-0.183 0.441v0c0 0.165 0.067 0.326 0.183 0.443 0.113 0.112 0.27 0.182 0.442 0.182s0.328-0.069 0.442-0.182l-0 0c0.113-0.114 0.183-0.27 0.183-0.443v-0c-0.001-0.172-0.071-0.328-0.183-0.441l0 0zM14.313 9.437c-1.311 0.002-2.373 1.064-2.375 2.375v0c0.002 1.311 1.064 2.373 2.375 2.375h0c1.311-0.002 2.373-1.064 2.375-2.375v-0c-0.002-1.311-1.064-2.373-2.375-2.375h-0zM14.313 12.938c-0.62 0-1.125-0.504-1.125-1.124s0.505-1.126 1.124-1.126c0.621 0 1.126 0.505 1.126 1.125s-0.505 1.125-1.125 1.125z"></path>
</symbol>
<symbol id="icon-alarm" viewBox="0 0 33 32">
<path d="M16.344 4.781c-2.267-0-4.482 0.658-6.367 1.891s-3.354 2.985-4.221 5.035-1.094 4.306-0.652 6.482c0.442 2.176 1.534 4.175 3.136 5.744s3.645 2.637 5.868 3.070c2.223 0.433 4.527 0.211 6.622-0.638s3.884-2.287 5.143-4.132c1.259-1.845 1.931-4.014 1.931-6.233-0.003-2.974-1.212-5.826-3.36-7.929s-5.061-3.286-8.1-3.29zM25.878 16.438h1.021c-0.104 2.439-1.088 4.762-2.779 6.557l-0.719-0.703c-0.041-0.041-0.091-0.073-0.145-0.095s-0.112-0.033-0.171-0.033c-0.059 0-0.117 0.011-0.171 0.033s-0.104 0.054-0.145 0.095c-0.041 0.041-0.074 0.089-0.097 0.142s-0.034 0.11-0.034 0.167c0 0.057 0.012 0.114 0.034 0.167s0.055 0.101 0.097 0.142l0.719 0.703c-1.833 1.655-4.206 2.619-6.697 2.72v-1c0-0.116-0.047-0.227-0.131-0.309s-0.197-0.128-0.316-0.128c-0.119 0-0.232 0.046-0.316 0.128s-0.131 0.193-0.131 0.309v1c-2.491-0.101-4.865-1.065-6.697-2.72l0.719-0.703c0.041-0.041 0.074-0.089 0.097-0.142s0.034-0.11 0.034-0.167c0-0.057-0.011-0.114-0.034-0.167s-0.055-0.101-0.097-0.142c-0.041-0.041-0.091-0.073-0.145-0.095s-0.112-0.033-0.171-0.033c-0.059 0-0.117 0.011-0.171 0.033s-0.104 0.054-0.145 0.095l-0.719 0.703c-1.69-1.794-2.675-4.118-2.778-6.557h1.021c0.119 0 0.232-0.046 0.316-0.128s0.131-0.193 0.131-0.309c0-0.116-0.047-0.227-0.131-0.309s-0.197-0.128-0.316-0.128h-1.021c0.103-2.439 1.088-4.762 2.778-6.556l0.719 0.703c0.084 0.082 0.197 0.128 0.316 0.128s0.232-0.046 0.316-0.128 0.131-0.193 0.131-0.309c0-0.116-0.047-0.227-0.131-0.309l-0.719-0.704c1.833-1.655 4.206-2.619 6.697-2.72v1c0 0.116 0.047 0.227 0.131 0.309s0.197 0.128 0.316 0.128c0.119 0 0.232-0.046 0.316-0.128s0.131-0.193 0.131-0.309v-1c2.491 0.101 4.865 1.065 6.697 2.72l-0.719 0.704c-0.041 0.041-0.074 0.089-0.097 0.142s-0.034 0.11-0.034 0.167c0 0.057 0.012 0.114 0.034 0.167s0.055 0.101 0.097 0.142c0.041 0.041 0.091 0.073 0.145 0.095s0.112 0.033 0.171 0.033c0.059 0 0.117-0.011 0.171-0.033s0.104-0.054 0.145-0.095l0.719-0.703c1.69 1.794 2.675 4.118 2.778 6.556h-1.021c-0.119 0-0.232 0.046-0.316 0.128s-0.131 0.193-0.131 0.309c0 0.116 0.047 0.227 0.131 0.309s0.197 0.128 0.316 0.128h0.001z"></path>
<path d="M21.42 15.563h-2.822c-0.089-0.437-0.308-0.837-0.63-1.152s-0.731-0.529-1.177-0.617v-4.325c0-0.116-0.047-0.227-0.131-0.309s-0.197-0.128-0.316-0.128c-0.119 0-0.232 0.046-0.316 0.128s-0.131 0.193-0.131 0.309v4.325c-0.408 0.079-0.787 0.265-1.096 0.539s-0.536 0.624-0.657 1.014c-0.121 0.39-0.132 0.805-0.031 1.2s0.31 0.757 0.604 1.045 0.663 0.493 1.067 0.592c0.404 0.099 0.828 0.089 1.226-0.030s0.756-0.341 1.036-0.643c0.279-0.302 0.47-0.673 0.551-1.073h2.822c0.119 0 0.232-0.046 0.316-0.128s0.131-0.193 0.131-0.309c0-0.116-0.047-0.227-0.131-0.309s-0.197-0.128-0.316-0.128zM16.344 17.375c-0.278 0-0.549-0.081-0.78-0.232s-0.411-0.366-0.517-0.617c-0.106-0.251-0.134-0.528-0.080-0.794s0.188-0.512 0.384-0.704c0.196-0.192 0.447-0.323 0.719-0.376s0.555-0.026 0.811 0.078c0.257 0.104 0.476 0.28 0.63 0.506s0.237 0.492 0.237 0.764c-0 0.365-0.148 0.714-0.412 0.972s-0.62 0.403-0.993 0.403z"></path>
<path d="M31.967 2.236l-1.564-1.53c-0.46-0.449-1.083-0.702-1.732-0.702s-1.272 0.252-1.732 0.702l-1.226 1.2c-0.041 0.041-0.074 0.089-0.097 0.142s-0.034 0.11-0.034 0.167c0 0.057 0.012 0.114 0.034 0.167s0.055 0.101 0.097 0.142l1.159 1.135-1.719 1.683c-2.491-1.98-5.602-3.061-8.81-3.061s-6.32 1.081-8.81 3.061l-1.719-1.683 1.159-1.135c0.042-0.041 0.074-0.089 0.097-0.142s0.034-0.11 0.034-0.167c0-0.057-0.012-0.114-0.034-0.167s-0.055-0.101-0.097-0.142l-1.226-1.2c-0.46-0.449-1.083-0.702-1.732-0.702s-1.272 0.252-1.732 0.702l-1.563 1.531c-0.459 0.45-0.717 1.060-0.717 1.696s0.258 1.246 0.717 1.696l1.226 1.2c0.041 0.041 0.091 0.073 0.145 0.095s0.112 0.033 0.171 0.033c0.059 0 0.117-0.011 0.171-0.033s0.103-0.054 0.145-0.095l1.16-1.135 1.719 1.683c-2.151 2.593-3.258 5.866-3.114 9.203s1.53 6.507 3.896 8.913l-2.202 4.839c-0.082 0.181-0.117 0.379-0.101 0.576s0.082 0.388 0.192 0.554c0.11 0.166 0.261 0.303 0.439 0.397s0.377 0.144 0.579 0.144h1.118c0.234-0 0.464-0.067 0.66-0.192s0.352-0.303 0.448-0.513l1.643-3.609c2.204 1.329 4.742 2.032 7.33 2.032s5.126-0.704 7.33-2.032l1.642 3.609c0.096 0.209 0.251 0.387 0.447 0.512s0.425 0.191 0.66 0.192h1.118c0.202 0 0.401-0.049 0.579-0.144s0.328-0.231 0.439-0.397c0.11-0.166 0.176-0.356 0.192-0.554s-0.019-0.395-0.101-0.576l-2.202-4.839c2.366-2.406 3.752-5.576 3.896-8.913s-0.964-6.61-3.114-9.203l1.719-1.683 1.16 1.135c0.041 0.041 0.091 0.073 0.145 0.095s0.112 0.033 0.171 0.033c0.059 0 0.117-0.011 0.171-0.033s0.103-0.054 0.145-0.095l1.226-1.2c0.459-0.45 0.716-1.060 0.716-1.695s-0.258-1.245-0.716-1.695zM2.262 5.9l-0.909-0.891c-0.291-0.286-0.455-0.673-0.455-1.077s0.164-0.791 0.455-1.077l1.563-1.53c0.292-0.285 0.688-0.445 1.1-0.445s0.808 0.16 1.1 0.445l0.911 0.89-3.765 3.685zM4.37 5.075l0.813-0.795 1.673 1.638c-0.282 0.254-0.553 0.519-0.813 0.796l-1.673-1.638zM6.555 30.94c-0.025 0.055-0.066 0.102-0.118 0.135s-0.112 0.050-0.174 0.050h-1.118c-0.053 0-0.106-0.013-0.152-0.038s-0.086-0.061-0.115-0.104c-0.029-0.044-0.046-0.094-0.051-0.146s0.005-0.104 0.027-0.152l2.067-4.541c0.424 0.376 0.871 0.727 1.339 1.050l-1.705 3.745zM27.811 30.983c-0.029 0.044-0.068 0.080-0.115 0.105s-0.099 0.038-0.153 0.037h-1.118c-0.062-0-0.122-0.018-0.174-0.050s-0.093-0.080-0.118-0.135l-1.704-3.745c0.468-0.323 0.915-0.674 1.339-1.050l2.067 4.54c0.022 0.048 0.031 0.1 0.026 0.152s-0.022 0.102-0.052 0.146h0.001zM16.344 28.844c-2.595 0-5.132-0.753-7.289-2.165s-3.839-3.417-4.832-5.764c-0.993-2.347-1.253-4.929-0.747-7.421s1.756-4.78 3.591-6.576c1.835-1.796 4.173-3.020 6.718-3.515s5.183-0.241 7.581 0.731c2.397 0.972 4.446 2.618 5.888 4.731s2.211 4.595 2.211 7.136c-0.004 3.405-1.387 6.67-3.847 9.078s-5.795 3.762-9.273 3.766zM26.645 6.712c-0.26-0.276-0.531-0.541-0.813-0.796l1.673-1.638 0.813 0.795-1.673 1.638zM31.335 5.009l-0.91 0.891-3.765-3.685 0.911-0.89c0.292-0.285 0.688-0.445 1.1-0.445s0.808 0.16 1.1 0.445l1.563 1.53c0.291 0.286 0.455 0.673 0.455 1.077s-0.164 0.791-0.455 1.077h0.001z"></path>
</symbol>
</defs>
</svg>
